# MagicaVoxel @ Ephtracy

# group
o 

# material
mtllib locmotive.mtl
usemtl palette

# normals
vn -1 0 0
vn 1 0 0
vn 0 0 1
vn 0 0 -1
vn 0 -1 0
vn 0 1 0

# texcoords
vt 0.654297 0.5
vt 0.853516 0.5
vt 0.966797 0.5
vt 0.982422 0.5
vt 0.986328 0.5
vt 0.990234 0.5
vt 0.994141 0.5

# verts
v -0.5 0.3 0.7
v -0.5 0.3 0.6
v -0.5 0.4 0.6
v -0.5 0.4 -0.7
v -0.5 0.5 0.7
v -0.5 0.5 0.6
v -0.5 0.5 0
v -0.5 0.5 -0.7
v -0.5 0.8 0
v -0.5 0.8 -0.2
v -0.5 1.1 -0.2
v -0.5 1.1 -0.4
v -0.5 1.3 -0.4
v -0.5 1.3 -0.7
v -0.5 1.4 -0.4
v -0.5 1.4 -0.7
v -0.4 0.2 0.3
v -0.4 0.2 -0.5
v -0.4 0.3 0.8
v -0.4 0.3 0.7
v -0.4 0.3 0.3
v -0.4 0.3 -0.5
v -0.4 0.4 -0.7
v -0.4 0.4 -0.8
v -0.4 0.5 0.8
v -0.4 0.5 0.7
v -0.4 0.5 -0.7
v -0.4 0.5 -0.8
v -0.4 1.1 -0.3
v -0.4 1.1 -0.4
v -0.4 1.3 -0.3
v -0.4 1.3 -0.4
v -0.4 1.3 -0.7
v -0.4 1.3 -0.8
v -0.4 1.4 -0.3
v -0.4 1.4 -0.4
v -0.4 1.4 -0.7
v -0.4 1.4 -0.8
v -0.3 0.1 0.4
v -0.3 0.1 0.2
v -0.3 0.1 -0.3
v -0.3 0.1 -0.5
v -0.3 0.2 0.5
v -0.3 0.2 0.4
v -0.3 0.2 0.3
v -0.3 0.2 0.2
v -0.3 0.2 -0.3
v -0.3 0.2 -0.5
v -0.3 0.2 -0.6
v -0.3 0.3 0.3
v -0.3 0.3 0.1
v -0.3 0.3 -0.2
v -0.3 0.3 -0.5
v -0.3 0.4 0.5
v -0.3 0.4 0.1
v -0.3 0.4 -0.2
v -0.3 0.4 -0.6
v -0.3 0.6 0.6
v -0.3 0.6 0.3
v -0.3 0.6 0
v -0.3 0.8 0
v -0.3 0.8 -0.3
v -0.3 1 0.6
v -0.3 1 0.3
v -0.3 1 -0.3
v -0.2 0.5 0.6
v -0.2 0.5 0.3
v -0.2 0.5 0
v -0.2 0.6 0.7
v -0.2 0.6 0.6
v -0.2 0.6 0.3
v -0.2 0.6 0
v -0.2 1 0.7
v -0.2 1 0.6
v -0.2 1 0.3
v -0.2 1 -0.4
v -0.2 1.1 0.6
v -0.2 1.1 0.3
v -0.2 1.1 -0.4
v -0.2 1.4 0.5
v -0.2 1.4 0.3
v -0.2 1.5 0.5
v -0.2 1.5 0.3
v -0.1 1 -0.7
v -0.1 1 -0.8
v -0.1 1.1 0.5
v -0.1 1.1 0.3
v -0.1 1.1 0
v -0.1 1.1 -0.2
v -0.1 1.1 -0.3
v -0.1 1.1 -0.4
v -0.1 1.2 -0.3
v -0.1 1.2 -0.4
v -0.1 1.2 -0.7
v -0.1 1.2 -0.8
v -0.1 1.3 0
v -0.1 1.3 -0.2
v -0.1 1.4 0.6
v -0.1 1.4 0.5
v -0.1 1.4 0.3
v -0.1 1.4 0.2
v -0.1 1.5 0.6
v -0.1 1.5 0.5
v -0.1 1.5 0.3
v -0.1 1.5 0.2
v -0.1 1.6 0.4
v -0.1 1.6 0.3
v -0.1 1.7 0.4
v -0.1 1.7 0.3
v 0 1.5 0.5
v 0 1.5 0.4
v 0 1.6 0.5
v 0 1.6 0.4
v 0.2 0.1 0.4
v 0.2 0.1 0.2
v 0.2 0.1 -0.3
v 0.2 0.1 -0.5
v 0.2 0.2 0.5
v 0.2 0.2 0.4
v 0.2 0.2 0.2
v 0.2 0.2 0.1
v 0.2 0.2 -0.2
v 0.2 0.2 -0.3
v 0.2 0.2 -0.5
v 0.2 0.2 -0.6
v 0.2 0.3 0.8
v 0.2 0.3 0.7
v 0.2 0.4 0.5
v 0.2 0.4 0.1
v 0.2 0.4 -0.2
v 0.2 0.4 -0.6
v 0.2 0.5 0.8
v 0.2 0.5 0.7
v 0.3 0.2 0.1
v 0.3 0.2 -0.2
v 0.3 0.3 0.1
v 0.3 0.3 -0.2
v 0.3 1 -0.3
v 0.3 1 -0.4
v 0.3 1 -0.7
v 0.3 1 -0.8
v 0.3 1.2 -0.3
v 0.3 1.2 -0.4
v 0.3 1.2 -0.7
v 0.3 1.2 -0.8
v 0.4 0.4 -0.1
v 0.4 0.4 -0.2
v 0.4 0.5 -0.1
v 0.4 0.5 -0.2
v 0.4 0.8 -0.2
v 0.4 0.8 -0.3
v 0.4 1.1 -0.2
v 0.4 1.1 -0.3
v -0.4 0.8 -0.2
v -0.4 0.8 -0.3
v -0.4 1.1 -0.2
v -0.4 1.1 -0.3
v -0.3 0.2 0.1
v -0.3 0.2 -0.2
v -0.3 0.3 0.1
v -0.3 0.3 -0.2
v -0.3 1 -0.3
v -0.3 1 -0.4
v -0.3 1 -0.7
v -0.3 1 -0.8
v -0.3 1.2 -0.3
v -0.3 1.2 -0.4
v -0.3 1.2 -0.7
v -0.3 1.2 -0.8
v -0.2 0.1 0.4
v -0.2 0.1 0.2
v -0.2 0.1 -0.3
v -0.2 0.1 -0.5
v -0.2 0.2 0.5
v -0.2 0.2 0.4
v -0.2 0.2 0.2
v -0.2 0.2 0.1
v -0.2 0.2 -0.2
v -0.2 0.2 -0.3
v -0.2 0.2 -0.5
v -0.2 0.2 -0.6
v -0.2 0.3 0.8
v -0.2 0.3 0.7
v -0.2 0.4 0.5
v -0.2 0.4 0.1
v -0.2 0.4 -0.2
v -0.2 0.4 -0.6
v -0.2 0.5 0.8
v -0.2 0.5 0.7
v 0 1.6 0.4
v 0 1.6 0.3
v 0 1.7 0.4
v 0 1.7 0.3
v 0.1 1 -0.7
v 0.1 1 -0.8
v 0.1 1.1 0.5
v 0.1 1.1 0.3
v 0.1 1.1 0
v 0.1 1.1 -0.2
v 0.1 1.1 -0.3
v 0.1 1.1 -0.4
v 0.1 1.2 -0.3
v 0.1 1.2 -0.4
v 0.1 1.2 -0.7
v 0.1 1.2 -0.8
v 0.1 1.3 0
v 0.1 1.3 -0.2
v 0.1 1.4 0.6
v 0.1 1.4 0.5
v 0.1 1.4 0.3
v 0.1 1.4 0.2
v 0.1 1.5 0.6
v 0.1 1.5 0.5
v 0.1 1.5 0.4
v 0.1 1.5 0.3
v 0.1 1.5 0.2
v 0.1 1.6 0.5
v 0.1 1.6 0.4
v 0.2 0.5 0.6
v 0.2 0.5 0.3
v 0.2 0.5 0
v 0.2 0.6 0.7
v 0.2 0.6 0.6
v 0.2 0.6 0.3
v 0.2 0.6 0
v 0.2 1 0.7
v 0.2 1 0.6
v 0.2 1 0.3
v 0.2 1 -0.4
v 0.2 1.1 0.6
v 0.2 1.1 0.3
v 0.2 1.1 -0.4
v 0.2 1.4 0.5
v 0.2 1.4 0.3
v 0.2 1.5 0.5
v 0.2 1.5 0.3
v 0.3 0.1 0.4
v 0.3 0.1 0.2
v 0.3 0.1 -0.3
v 0.3 0.1 -0.5
v 0.3 0.2 0.5
v 0.3 0.2 0.4
v 0.3 0.2 0.3
v 0.3 0.2 0.2
v 0.3 0.2 -0.3
v 0.3 0.2 -0.5
v 0.3 0.2 -0.6
v 0.3 0.3 0.3
v 0.3 0.3 0.1
v 0.3 0.3 -0.3
v 0.3 0.3 -0.5
v 0.3 0.4 0.5
v 0.3 0.4 0.1
v 0.3 0.4 -0.1
v 0.3 0.4 -0.2
v 0.3 0.4 -0.3
v 0.3 0.4 -0.6
v 0.3 0.5 -0.1
v 0.3 0.5 -0.2
v 0.3 0.6 0.6
v 0.3 0.6 0.3
v 0.3 0.6 0
v 0.3 0.8 0
v 0.3 0.8 -0.3
v 0.3 1 0.6
v 0.3 1 0.3
v 0.3 1 -0.3
v 0.4 0.2 0.3
v 0.4 0.2 -0.5
v 0.4 0.3 0.8
v 0.4 0.3 0.7
v 0.4 0.3 0.3
v 0.4 0.3 -0.2
v 0.4 0.3 -0.3
v 0.4 0.3 -0.5
v 0.4 0.4 -0.2
v 0.4 0.4 -0.3
v 0.4 0.4 -0.7
v 0.4 0.4 -0.8
v 0.4 0.5 0.8
v 0.4 0.5 0.7
v 0.4 0.5 -0.7
v 0.4 0.5 -0.8
v 0.4 1.1 -0.3
v 0.4 1.1 -0.4
v 0.4 1.3 -0.3
v 0.4 1.3 -0.4
v 0.4 1.3 -0.7
v 0.4 1.3 -0.8
v 0.4 1.4 -0.3
v 0.4 1.4 -0.4
v 0.4 1.4 -0.7
v 0.4 1.4 -0.8
v 0.5 0.3 0.7
v 0.5 0.3 0.6
v 0.5 0.4 0.6
v 0.5 0.4 -0.7
v 0.5 0.5 0.7
v 0.5 0.5 0.6
v 0.5 0.5 0
v 0.5 0.5 -0.7
v 0.5 0.8 0
v 0.5 0.8 -0.2
v 0.5 1.1 -0.2
v 0.5 1.1 -0.4
v 0.5 1.3 -0.4
v 0.5 1.3 -0.7
v 0.5 1.4 -0.4
v 0.5 1.4 -0.7
v -0.4 0.3 0.8
v -0.4 0.5 0.8
v -0.2 0.3 0.8
v -0.2 0.5 0.8
v 0.2 0.3 0.8
v 0.2 0.5 0.8
v 0.4 0.3 0.8
v 0.4 0.5 0.8
v -0.5 0.3 0.7
v -0.5 0.5 0.7
v -0.4 0.3 0.7
v -0.4 0.5 0.7
v -0.2 0.3 0.7
v -0.2 0.5 0.7
v -0.2 0.6 0.7
v -0.2 1 0.7
v 0.2 0.3 0.7
v 0.2 0.5 0.7
v 0.2 0.6 0.7
v 0.2 1 0.7
v 0.4 0.3 0.7
v 0.4 0.5 0.7
v 0.5 0.3 0.7
v 0.5 0.5 0.7
v -0.3 0.6 0.6
v -0.3 1 0.6
v -0.2 0.5 0.6
v -0.2 0.6 0.6
v -0.2 1 0.6
v -0.2 1.1 0.6
v -0.1 1.4 0.6
v -0.1 1.5 0.6
v 0.1 1.4 0.6
v 0.1 1.5 0.6
v 0.2 0.5 0.6
v 0.2 0.6 0.6
v 0.2 1 0.6
v 0.2 1.1 0.6
v 0.3 0.6 0.6
v 0.3 1 0.6
v -0.3 0.2 0.5
v -0.3 0.4 0.5
v -0.2 0.2 0.5
v -0.2 0.4 0.5
v -0.2 1.4 0.5
v -0.2 1.5 0.5
v -0.1 1.1 0.5
v -0.1 1.4 0.5
v -0.1 1.5 0.5
v 0 1.5 0.5
v 0 1.6 0.5
v 0.1 1.1 0.5
v 0.1 1.4 0.5
v 0.1 1.5 0.5
v 0.1 1.6 0.5
v 0.2 0.2 0.5
v 0.2 0.4 0.5
v 0.2 1.4 0.5
v 0.2 1.5 0.5
v 0.3 0.2 0.5
v 0.3 0.4 0.5
v -0.3 0.1 0.4
v -0.3 0.2 0.4
v -0.2 0.1 0.4
v -0.2 0.2 0.4
v -0.1 1.6 0.4
v -0.1 1.7 0.4
v 0 1.6 0.4
v 0 1.7 0.4
v 0.2 0.1 0.4
v 0.2 0.2 0.4
v 0.3 0.1 0.4
v 0.3 0.2 0.4
v -0.4 0.2 0.3
v -0.4 0.3 0.3
v -0.3 0.2 0.3
v -0.3 0.3 0.3
v 0.3 0.2 0.3
v 0.3 0.3 0.3
v 0.4 0.2 0.3
v 0.4 0.3 0.3
v -0.5 0.5 0
v -0.5 0.8 0
v -0.3 0.6 0
v -0.3 0.8 0
v -0.2 0.5 0
v -0.2 0.6 0
v -0.1 1.1 0
v -0.1 1.3 0
v 0.1 1.1 0
v 0.1 1.3 0
v 0.2 0.5 0
v 0.2 0.6 0
v 0.3 0.6 0
v 0.3 0.8 0
v 0.5 0.5 0
v 0.5 0.8 0
v -0.5 0.8 -0.2
v -0.5 1.1 -0.2
v -0.4 0.8 -0.2
v -0.4 1.1 -0.2
v -0.3 0.2 -0.2
v -0.3 0.3 -0.2
v -0.3 0.4 -0.2
v -0.2 0.2 -0.2
v -0.2 0.4 -0.2
v 0.2 0.2 -0.2
v 0.2 0.4 -0.2
v 0.3 0.2 -0.2
v 0.3 0.3 -0.2
v 0.3 0.4 -0.2
v 0.3 0.5 -0.2
v 0.4 0.3 -0.2
v 0.4 0.4 -0.2
v 0.4 0.5 -0.2
v 0.4 0.8 -0.2
v 0.4 1.1 -0.2
v 0.5 0.8 -0.2
v 0.5 1.1 -0.2
v -0.4 0.8 -0.3
v -0.4 1.1 -0.3
v -0.4 1.3 -0.3
v -0.4 1.4 -0.3
v -0.3 0.1 -0.3
v -0.3 0.2 -0.3
v -0.3 0.8 -0.3
v -0.3 1 -0.3
v -0.3 1.2 -0.3
v -0.2 0.1 -0.3
v -0.2 0.2 -0.3
v -0.1 1.1 -0.3
v -0.1 1.2 -0.3
v 0.1 1.1 -0.3
v 0.1 1.2 -0.3
v 0.2 0.1 -0.3
v 0.2 0.2 -0.3
v 0.3 0.1 -0.3
v 0.3 0.2 -0.3
v 0.3 0.8 -0.3
v 0.3 1 -0.3
v 0.3 1.2 -0.3
v 0.4 0.8 -0.3
v 0.4 1.1 -0.3
v 0.4 1.3 -0.3
v 0.4 1.4 -0.3
v -0.5 1.1 -0.4
v -0.5 1.3 -0.4
v -0.5 1.4 -0.4
v -0.4 1.1 -0.4
v -0.4 1.3 -0.4
v -0.4 1.4 -0.4
v -0.3 1 -0.4
v -0.3 1.2 -0.4
v -0.2 1 -0.4
v -0.2 1.1 -0.4
v -0.1 1.1 -0.4
v -0.1 1.2 -0.4
v 0.1 1.1 -0.4
v 0.1 1.2 -0.4
v 0.2 1 -0.4
v 0.2 1.1 -0.4
v 0.3 1 -0.4
v 0.3 1.2 -0.4
v 0.4 1.1 -0.4
v 0.4 1.3 -0.4
v 0.4 1.4 -0.4
v 0.5 1.1 -0.4
v 0.5 1.3 -0.4
v 0.5 1.4 -0.4
v -0.5 0.3 0.6
v -0.5 0.4 0.6
v 0.5 0.3 0.6
v 0.5 0.4 0.6
v 0 1.5 0.4
v 0 1.6 0.4
v 0.1 1.5 0.4
v 0.1 1.6 0.4
v -0.2 1.4 0.3
v -0.2 1.5 0.3
v -0.1 1.1 0.3
v -0.1 1.4 0.3
v -0.1 1.5 0.3
v -0.1 1.6 0.3
v -0.1 1.7 0.3
v 0 1.6 0.3
v 0 1.7 0.3
v 0.1 1.1 0.3
v 0.1 1.4 0.3
v 0.1 1.5 0.3
v 0.2 1.4 0.3
v 0.2 1.5 0.3
v -0.3 0.1 0.2
v -0.3 0.2 0.2
v -0.2 0.1 0.2
v -0.2 0.2 0.2
v -0.1 1.4 0.2
v -0.1 1.5 0.2
v 0.1 1.4 0.2
v 0.1 1.5 0.2
v 0.2 0.1 0.2
v 0.2 0.2 0.2
v 0.3 0.1 0.2
v 0.3 0.2 0.2
v -0.3 0.2 0.1
v -0.3 0.3 0.1
v -0.3 0.4 0.1
v -0.2 0.2 0.1
v -0.2 0.4 0.1
v 0.2 0.2 0.1
v 0.2 0.4 0.1
v 0.3 0.2 0.1
v 0.3 0.3 0.1
v 0.3 0.4 0.1
v 0.3 0.4 -0.1
v 0.3 0.5 -0.1
v 0.4 0.4 -0.1
v 0.4 0.5 -0.1
v -0.1 1.1 -0.2
v -0.1 1.3 -0.2
v 0.1 1.1 -0.2
v 0.1 1.3 -0.2
v 0.3 0.3 -0.3
v 0.3 0.4 -0.3
v 0.4 0.3 -0.3
v 0.4 0.4 -0.3
v -0.4 0.2 -0.5
v -0.4 0.3 -0.5
v -0.3 0.1 -0.5
v -0.3 0.2 -0.5
v -0.3 0.3 -0.5
v -0.2 0.1 -0.5
v -0.2 0.2 -0.5
v 0.2 0.1 -0.5
v 0.2 0.2 -0.5
v 0.3 0.1 -0.5
v 0.3 0.2 -0.5
v 0.3 0.3 -0.5
v 0.4 0.2 -0.5
v 0.4 0.3 -0.5
v -0.3 0.2 -0.6
v -0.3 0.4 -0.6
v -0.2 0.2 -0.6
v -0.2 0.4 -0.6
v 0.2 0.2 -0.6
v 0.2 0.4 -0.6
v 0.3 0.2 -0.6
v 0.3 0.4 -0.6
v -0.5 0.4 -0.7
v -0.5 0.5 -0.7
v -0.5 1.3 -0.7
v -0.5 1.4 -0.7
v -0.4 0.4 -0.7
v -0.4 0.5 -0.7
v -0.4 1.3 -0.7
v -0.4 1.4 -0.7
v -0.3 1 -0.7
v -0.3 1.2 -0.7
v -0.1 1 -0.7
v -0.1 1.2 -0.7
v 0.1 1 -0.7
v 0.1 1.2 -0.7
v 0.3 1 -0.7
v 0.3 1.2 -0.7
v 0.4 0.4 -0.7
v 0.4 0.5 -0.7
v 0.4 1.3 -0.7
v 0.4 1.4 -0.7
v 0.5 0.4 -0.7
v 0.5 0.5 -0.7
v 0.5 1.3 -0.7
v 0.5 1.4 -0.7
v -0.4 0.4 -0.8
v -0.4 0.5 -0.8
v -0.4 1.3 -0.8
v -0.4 1.4 -0.8
v -0.3 1 -0.8
v -0.3 1.2 -0.8
v -0.1 1 -0.8
v -0.1 1.2 -0.8
v 0.1 1 -0.8
v 0.1 1.2 -0.8
v 0.3 1 -0.8
v 0.3 1.2 -0.8
v 0.4 0.4 -0.8
v 0.4 0.5 -0.8
v 0.4 1.3 -0.8
v 0.4 1.4 -0.8
v -0.3 0.1 0.4
v -0.2 0.1 0.4
v 0.2 0.1 0.4
v 0.3 0.1 0.4
v -0.3 0.1 0.2
v -0.2 0.1 0.2
v 0.2 0.1 0.2
v 0.3 0.1 0.2
v -0.3 0.1 -0.3
v -0.2 0.1 -0.3
v 0.2 0.1 -0.3
v 0.3 0.1 -0.3
v -0.3 0.1 -0.5
v -0.2 0.1 -0.5
v 0.2 0.1 -0.5
v 0.3 0.1 -0.5
v -0.3 0.2 0.5
v -0.2 0.2 0.5
v 0.2 0.2 0.5
v 0.3 0.2 0.5
v -0.3 0.2 0.4
v -0.2 0.2 0.4
v 0.2 0.2 0.4
v 0.3 0.2 0.4
v -0.4 0.2 0.3
v -0.3 0.2 0.3
v 0.3 0.2 0.3
v 0.4 0.2 0.3
v -0.3 0.2 0.2
v -0.2 0.2 0.2
v 0.2 0.2 0.2
v 0.3 0.2 0.2
v -0.3 0.2 0.1
v -0.2 0.2 0.1
v 0.2 0.2 0.1
v 0.3 0.2 0.1
v -0.3 0.2 -0.2
v -0.2 0.2 -0.2
v 0.2 0.2 -0.2
v 0.3 0.2 -0.2
v -0.3 0.2 -0.3
v -0.2 0.2 -0.3
v 0.2 0.2 -0.3
v 0.3 0.2 -0.3
v -0.4 0.2 -0.5
v -0.3 0.2 -0.5
v -0.2 0.2 -0.5
v 0.2 0.2 -0.5
v 0.3 0.2 -0.5
v 0.4 0.2 -0.5
v -0.3 0.2 -0.6
v -0.2 0.2 -0.6
v 0.2 0.2 -0.6
v 0.3 0.2 -0.6
v -0.4 0.3 0.8
v -0.2 0.3 0.8
v 0.2 0.3 0.8
v 0.4 0.3 0.8
v -0.5 0.3 0.7
v -0.4 0.3 0.7
v -0.2 0.3 0.7
v 0.2 0.3 0.7
v 0.4 0.3 0.7
v 0.5 0.3 0.7
v -0.5 0.3 0.6
v 0.5 0.3 0.6
v -0.5 0.4 0.6
v 0.5 0.4 0.6
v -0.3 0.4 0.5
v -0.2 0.4 0.5
v 0.2 0.4 0.5
v 0.3 0.4 0.5
v -0.3 0.4 0.1
v -0.2 0.4 0.1
v 0.2 0.4 0.1
v 0.3 0.4 0.1
v 0.3 0.4 -0.1
v 0.4 0.4 -0.1
v -0.3 0.4 -0.2
v -0.2 0.4 -0.2
v 0.2 0.4 -0.2
v 0.3 0.4 -0.2
v 0.4 0.4 -0.2
v 0.3 0.4 -0.3
v 0.4 0.4 -0.3
v -0.3 0.4 -0.6
v -0.2 0.4 -0.6
v 0.2 0.4 -0.6
v 0.3 0.4 -0.6
v -0.5 0.4 -0.7
v -0.4 0.4 -0.7
v 0.4 0.4 -0.7
v 0.5 0.4 -0.7
v -0.4 0.4 -0.8
v 0.4 0.4 -0.8
v 0.3 0.5 -0.1
v 0.4 0.5 -0.1
v 0.3 0.5 -0.2
v 0.4 0.5 -0.2
v -0.2 0.6 0.7
v 0.2 0.6 0.7
v -0.3 0.6 0.6
v -0.2 0.6 0.6
v 0.2 0.6 0.6
v 0.3 0.6 0.6
v -0.3 0.6 0.3
v -0.2 0.6 0.3
v 0.2 0.6 0.3
v 0.3 0.6 0.3
v -0.3 0.6 0
v -0.2 0.6 0
v 0.2 0.6 0
v 0.3 0.6 0
v -0.3 1.2 -0.3
v -0.1 1.2 -0.3
v 0.1 1.2 -0.3
v 0.3 1.2 -0.3
v -0.3 1.2 -0.4
v -0.1 1.2 -0.4
v 0.1 1.2 -0.4
v 0.3 1.2 -0.4
v -0.3 1.2 -0.7
v -0.1 1.2 -0.7
v 0.1 1.2 -0.7
v 0.3 1.2 -0.7
v -0.3 1.2 -0.8
v -0.1 1.2 -0.8
v 0.1 1.2 -0.8
v 0.3 1.2 -0.8
v -0.1 1.4 0.6
v 0.1 1.4 0.6
v -0.2 1.4 0.5
v -0.1 1.4 0.5
v 0.1 1.4 0.5
v 0.2 1.4 0.5
v -0.2 1.4 0.3
v -0.1 1.4 0.3
v 0.1 1.4 0.3
v 0.2 1.4 0.3
v -0.1 1.4 0.2
v 0.1 1.4 0.2
v -0.1 1.6 0.4
v 0 1.6 0.4
v -0.1 1.6 0.3
v 0 1.6 0.3
v -0.4 0.3 0.3
v -0.3 0.3 0.3
v 0.3 0.3 0.3
v 0.4 0.3 0.3
v -0.3 0.3 0.1
v 0.3 0.3 0.1
v -0.3 0.3 -0.2
v 0.3 0.3 -0.2
v 0.4 0.3 -0.2
v 0.3 0.3 -0.3
v 0.4 0.3 -0.3
v -0.4 0.3 -0.5
v -0.3 0.3 -0.5
v 0.3 0.3 -0.5
v 0.4 0.3 -0.5
v -0.4 0.5 0.8
v -0.2 0.5 0.8
v 0.2 0.5 0.8
v 0.4 0.5 0.8
v -0.5 0.5 0.7
v -0.4 0.5 0.7
v -0.2 0.5 0.7
v 0.2 0.5 0.7
v 0.4 0.5 0.7
v 0.5 0.5 0.7
v -0.5 0.5 0.6
v -0.2 0.5 0.6
v 0.2 0.5 0.6
v 0.5 0.5 0.6
v -0.2 0.5 0.3
v 0.2 0.5 0.3
v -0.5 0.5 0
v -0.2 0.5 0
v 0.2 0.5 0
v 0.5 0.5 0
v -0.5 0.8 0
v -0.3 0.8 0
v 0.3 0.8 0
v 0.5 0.8 0
v -0.5 0.8 -0.2
v -0.4 0.8 -0.2
v 0.4 0.8 -0.2
v 0.5 0.8 -0.2
v -0.4 0.8 -0.3
v -0.3 0.8 -0.3
v 0.3 0.8 -0.3
v 0.4 0.8 -0.3
v -0.2 1 0.7
v 0.2 1 0.7
v -0.3 1 0.6
v -0.2 1 0.6
v 0.2 1 0.6
v 0.3 1 0.6
v -0.3 1 0.3
v -0.2 1 0.3
v 0.2 1 0.3
v 0.3 1 0.3
v -0.3 1 -0.3
v 0.3 1 -0.3
v -0.3 1 -0.4
v -0.2 1 -0.4
v 0.2 1 -0.4
v 0.3 1 -0.4
v -0.3 1 -0.7
v -0.1 1 -0.7
v 0.1 1 -0.7
v 0.3 1 -0.7
v -0.3 1 -0.8
v -0.1 1 -0.8
v 0.1 1 -0.8
v 0.3 1 -0.8
v -0.2 1.1 0.6
v 0.2 1.1 0.6
v -0.1 1.1 0.5
v 0.1 1.1 0.5
v -0.2 1.1 0.3
v -0.1 1.1 0.3
v 0.1 1.1 0.3
v 0.2 1.1 0.3
v -0.1 1.1 0
v 0.1 1.1 0
v -0.5 1.1 -0.2
v -0.4 1.1 -0.2
v -0.1 1.1 -0.2
v 0.1 1.1 -0.2
v 0.4 1.1 -0.2
v 0.5 1.1 -0.2
v -0.4 1.1 -0.3
v -0.1 1.1 -0.3
v 0.1 1.1 -0.3
v 0.4 1.1 -0.3
v -0.5 1.1 -0.4
v -0.4 1.1 -0.4
v -0.2 1.1 -0.4
v -0.1 1.1 -0.4
v 0.1 1.1 -0.4
v 0.2 1.1 -0.4
v 0.4 1.1 -0.4
v 0.5 1.1 -0.4
v -0.1 1.3 0
v 0.1 1.3 0
v -0.1 1.3 -0.2
v 0.1 1.3 -0.2
v -0.4 1.4 -0.3
v 0.4 1.4 -0.3
v -0.5 1.4 -0.4
v -0.4 1.4 -0.4
v 0.4 1.4 -0.4
v 0.5 1.4 -0.4
v -0.5 1.4 -0.7
v -0.4 1.4 -0.7
v 0.4 1.4 -0.7
v 0.5 1.4 -0.7
v -0.4 1.4 -0.8
v 0.4 1.4 -0.8
v -0.1 1.5 0.6
v 0.1 1.5 0.6
v -0.2 1.5 0.5
v -0.1 1.5 0.5
v 0 1.5 0.5
v 0.1 1.5 0.5
v 0.2 1.5 0.5
v 0 1.5 0.4
v 0.1 1.5 0.4
v -0.2 1.5 0.3
v -0.1 1.5 0.3
v 0.1 1.5 0.3
v 0.2 1.5 0.3
v -0.1 1.5 0.2
v 0.1 1.5 0.2
v 0 1.6 0.5
v 0.1 1.6 0.5
v 0 1.6 0.4
v 0.1 1.6 0.4
v -0.1 1.7 0.4
v 0 1.7 0.4
v -0.1 1.7 0.3
v 0 1.7 0.3

# faces
f 3/2/1 2/2/1 1/2/1
f 5/2/1 3/2/1 1/2/1
f 6/5/1 4/5/1 3/5/1
f 6/2/1 3/2/1 5/2/1
f 7/5/1 4/5/1 6/5/1
f 8/5/1 4/5/1 7/5/1
f 9/1/1 8/1/1 7/1/1
f 10/1/1 8/1/1 9/1/1
f 11/1/1 8/1/1 10/1/1
f 12/1/1 8/1/1 11/1/1
f 13/1/1 8/1/1 12/1/1
f 14/1/1 8/1/1 13/1/1
f 15/6/1 14/6/1 13/6/1
f 16/6/1 14/6/1 15/6/1
f 21/1/1 18/1/1 17/1/1
f 22/1/1 18/1/1 21/1/1
f 25/7/1 20/7/1 19/7/1
f 26/7/1 20/7/1 25/7/1
f 27/5/1 24/5/1 23/5/1
f 28/5/1 24/5/1 27/5/1
f 31/1/1 30/1/1 29/1/1
f 32/1/1 30/1/1 31/1/1
f 33/1/1 28/1/1 27/1/1
f 34/1/1 28/1/1 33/1/1
f 35/6/1 32/6/1 31/6/1
f 36/6/1 32/6/1 35/6/1
f 37/6/1 34/6/1 33/6/1
f 38/6/1 34/6/1 37/6/1
f 44/4/1 40/4/1 39/4/1
f 45/4/1 40/4/1 44/4/1
f 46/4/1 40/4/1 45/4/1
f 47/4/1 42/4/1 41/4/1
f 48/4/1 42/4/1 47/4/1
f 50/4/1 44/4/1 43/4/1
f 50/4/1 45/4/1 44/4/1
f 53/4/1 49/4/1 48/4/1
f 54/4/1 51/4/1 50/4/1
f 54/4/1 50/4/1 43/4/1
f 55/4/1 51/4/1 54/4/1
f 56/4/1 53/4/1 52/4/1
f 57/4/1 49/4/1 53/4/1
f 57/4/1 53/4/1 56/4/1
f 61/1/1 60/1/1 59/1/1
f 63/6/1 59/6/1 58/6/1
f 64/1/1 62/1/1 61/1/1
f 64/6/1 59/6/1 63/6/1
f 64/1/1 61/1/1 59/1/1
f 65/1/1 62/1/1 64/1/1
f 70/6/1 67/6/1 66/6/1
f 71/1/1 68/1/1 67/1/1
f 71/6/1 67/6/1 70/6/1
f 72/1/1 68/1/1 71/1/1
f 73/6/1 70/6/1 69/6/1
f 74/6/1 70/6/1 73/6/1
f 77/6/1 75/6/1 74/6/1
f 78/1/1 76/1/1 75/1/1
f 78/6/1 75/6/1 77/6/1
f 79/1/1 76/1/1 78/1/1
f 82/6/1 81/6/1 80/6/1
f 83/6/1 81/6/1 82/6/1
f 92/1/1 91/1/1 90/1/1
f 93/1/1 91/1/1 92/1/1
f 94/1/1 85/1/1 84/1/1
f 95/1/1 85/1/1 94/1/1
f 96/1/1 89/1/1 88/1/1
f 97/1/1 89/1/1 96/1/1
f 99/6/1 87/6/1 86/6/1
f 100/6/1 87/6/1 99/6/1
f 102/6/1 99/6/1 98/6/1
f 103/6/1 99/6/1 102/6/1
f 104/6/1 101/6/1 100/6/1
f 105/6/1 101/6/1 104/6/1
f 108/3/1 107/3/1 106/3/1
f 109/3/1 107/3/1 108/3/1
f 112/3/1 111/3/1 110/3/1
f 113/3/1 111/3/1 112/3/1
f 119/4/1 115/4/1 114/4/1
f 120/4/1 115/4/1 119/4/1
f 123/4/1 117/4/1 116/4/1
f 124/4/1 117/4/1 123/4/1
f 128/4/1 121/4/1 120/4/1
f 128/4/1 119/4/1 118/4/1
f 128/4/1 120/4/1 119/4/1
f 129/4/1 121/4/1 128/4/1
f 130/4/1 125/4/1 124/4/1
f 130/4/1 124/4/1 123/4/1
f 130/4/1 123/4/1 122/4/1
f 131/4/1 125/4/1 130/4/1
f 132/7/1 127/7/1 126/7/1
f 133/7/1 127/7/1 132/7/1
f 136/1/1 135/1/1 134/1/1
f 137/1/1 135/1/1 136/1/1
f 142/1/1 139/1/1 138/1/1
f 143/1/1 139/1/1 142/1/1
f 144/1/1 141/1/1 140/1/1
f 145/1/1 141/1/1 144/1/1
f 148/5/1 147/5/1 146/5/1
f 149/5/1 147/5/1 148/5/1
f 152/1/1 151/1/1 150/1/1
f 153/1/1 151/1/1 152/1/1
f 154/1/2 155/1/2 156/1/2
f 156/1/2 155/1/2 157/1/2
f 158/1/2 159/1/2 160/1/2
f 160/1/2 159/1/2 161/1/2
f 162/1/2 163/1/2 166/1/2
f 166/1/2 163/1/2 167/1/2
f 164/1/2 165/1/2 168/1/2
f 168/1/2 165/1/2 169/1/2
f 170/4/2 171/4/2 175/4/2
f 175/4/2 171/4/2 176/4/2
f 172/4/2 173/4/2 179/4/2
f 179/4/2 173/4/2 180/4/2
f 176/4/2 177/4/2 184/4/2
f 174/4/2 175/4/2 184/4/2
f 175/4/2 176/4/2 184/4/2
f 184/4/2 177/4/2 185/4/2
f 180/4/2 181/4/2 186/4/2
f 179/4/2 180/4/2 186/4/2
f 178/4/2 179/4/2 186/4/2
f 186/4/2 181/4/2 187/4/2
f 182/7/2 183/7/2 188/7/2
f 188/7/2 183/7/2 189/7/2
f 190/3/2 191/3/2 192/3/2
f 192/3/2 191/3/2 193/3/2
f 200/1/2 201/1/2 202/1/2
f 202/1/2 201/1/2 203/1/2
f 194/1/2 195/1/2 204/1/2
f 204/1/2 195/1/2 205/1/2
f 198/1/2 199/1/2 206/1/2
f 206/1/2 199/1/2 207/1/2
f 196/6/2 197/6/2 209/6/2
f 209/6/2 197/6/2 210/6/2
f 208/6/2 209/6/2 212/6/2
f 212/6/2 209/6/2 213/6/2
f 210/6/2 211/6/2 215/6/2
f 215/6/2 211/6/2 216/6/2
f 213/3/2 214/3/2 217/3/2
f 217/3/2 214/3/2 218/3/2
f 219/6/2 220/6/2 223/6/2
f 220/1/2 221/1/2 224/1/2
f 223/6/2 220/6/2 224/6/2
f 224/1/2 221/1/2 225/1/2
f 222/6/2 223/6/2 226/6/2
f 226/6/2 223/6/2 227/6/2
f 227/6/2 228/6/2 230/6/2
f 228/1/2 229/1/2 231/1/2
f 230/6/2 228/6/2 231/6/2
f 231/1/2 229/1/2 232/1/2
f 233/6/2 234/6/2 235/6/2
f 235/6/2 234/6/2 236/6/2
f 237/4/2 238/4/2 242/4/2
f 242/4/2 238/4/2 243/4/2
f 243/4/2 238/4/2 244/4/2
f 239/4/2 240/4/2 245/4/2
f 245/4/2 240/4/2 246/4/2
f 241/4/2 242/4/2 248/4/2
f 242/4/2 243/4/2 248/4/2
f 246/4/2 247/4/2 251/4/2
f 248/4/2 249/4/2 252/4/2
f 241/4/2 248/4/2 252/4/2
f 252/4/2 249/4/2 253/4/2
f 250/4/2 251/4/2 256/4/2
f 251/4/2 247/4/2 257/4/2
f 256/4/2 251/4/2 257/4/2
f 254/5/2 255/5/2 258/5/2
f 258/5/2 255/5/2 259/5/2
f 261/1/2 262/1/2 263/1/2
f 260/6/2 261/6/2 265/6/2
f 261/1/2 263/1/2 266/1/2
f 265/6/2 261/6/2 266/6/2
f 263/1/2 264/1/2 266/1/2
f 266/1/2 264/1/2 267/1/2
f 268/1/2 269/1/2 272/1/2
f 272/1/2 269/1/2 273/1/2
f 273/1/2 269/1/2 274/1/2
f 274/1/2 269/1/2 275/1/2
f 273/5/2 274/5/2 276/5/2
f 276/5/2 274/5/2 277/5/2
f 270/7/2 271/7/2 280/7/2
f 280/7/2 271/7/2 281/7/2
f 278/5/2 279/5/2 282/5/2
f 282/5/2 279/5/2 283/5/2
f 284/1/2 285/1/2 286/1/2
f 286/1/2 285/1/2 287/1/2
f 282/1/2 283/1/2 288/1/2
f 288/1/2 283/1/2 289/1/2
f 286/6/2 287/6/2 290/6/2
f 290/6/2 287/6/2 291/6/2
f 288/6/2 289/6/2 292/6/2
f 292/6/2 289/6/2 293/6/2
f 294/2/2 295/2/2 296/2/2
f 294/2/2 296/2/2 298/2/2
f 296/5/2 297/5/2 299/5/2
f 298/2/2 296/2/2 299/2/2
f 299/5/2 297/5/2 300/5/2
f 300/5/2 297/5/2 301/5/2
f 300/1/2 301/1/2 302/1/2
f 302/1/2 301/1/2 303/1/2
f 303/1/2 301/1/2 304/1/2
f 304/1/2 301/1/2 305/1/2
f 305/1/2 301/1/2 306/1/2
f 306/1/2 301/1/2 307/1/2
f 306/6/2 307/6/2 308/6/2
f 308/6/2 307/6/2 309/6/2
f 312/7/3 311/7/3 310/7/3
f 313/7/3 311/7/3 312/7/3
f 316/7/3 315/7/3 314/7/3
f 317/7/3 315/7/3 316/7/3
f 320/2/3 319/2/3 318/2/3
f 321/2/3 319/2/3 320/2/3
f 326/2/3 323/2/3 322/2/3
f 327/2/3 323/2/3 326/2/3
f 328/6/3 325/6/3 324/6/3
f 329/6/3 325/6/3 328/6/3
f 332/2/3 331/2/3 330/2/3
f 333/2/3 331/2/3 332/2/3
f 337/6/3 335/6/3 334/6/3
f 338/6/3 335/6/3 337/6/3
f 342/6/3 341/6/3 340/6/3
f 343/6/3 341/6/3 342/6/3
f 344/6/3 337/6/3 336/6/3
f 345/6/3 337/6/3 344/6/3
f 346/6/3 339/6/3 338/6/3
f 347/6/3 339/6/3 346/6/3
f 348/6/3 346/6/3 345/6/3
f 349/6/3 346/6/3 348/6/3
f 352/4/3 351/4/3 350/4/3
f 353/4/3 351/4/3 352/4/3
f 357/6/3 355/6/3 354/6/3
f 358/6/3 355/6/3 357/6/3
f 361/6/3 357/6/3 356/6/3
f 362/6/3 357/6/3 361/6/3
f 363/3/3 360/3/3 359/3/3
f 364/3/3 360/3/3 363/3/3
f 367/6/3 363/6/3 362/6/3
f 368/6/3 363/6/3 367/6/3
f 369/4/3 366/4/3 365/4/3
f 370/4/3 366/4/3 369/4/3
f 373/4/3 372/4/3 371/4/3
f 374/4/3 372/4/3 373/4/3
f 377/3/3 376/3/3 375/3/3
f 378/3/3 376/3/3 377/3/3
f 381/4/3 380/4/3 379/4/3
f 382/4/3 380/4/3 381/4/3
f 385/1/3 384/1/3 383/1/3
f 386/1/3 384/1/3 385/1/3
f 389/1/3 388/1/3 387/1/3
f 390/1/3 388/1/3 389/1/3
f 393/1/3 392/1/3 391/1/3
f 394/1/3 392/1/3 393/1/3
f 395/1/3 393/1/3 391/1/3
f 396/1/3 393/1/3 395/1/3
f 399/1/3 398/1/3 397/1/3
f 400/1/3 398/1/3 399/1/3
f 403/1/3 402/1/3 401/1/3
f 405/1/3 403/1/3 401/1/3
f 405/1/3 404/1/3 403/1/3
f 406/1/3 404/1/3 405/1/3
f 409/1/3 408/1/3 407/1/3
f 410/1/3 408/1/3 409/1/3
f 414/4/3 412/4/3 411/4/3
f 414/4/3 413/4/3 412/4/3
f 415/4/3 413/4/3 414/4/3
f 418/4/3 417/4/3 416/4/3
f 419/4/3 417/4/3 418/4/3
f 420/4/3 417/4/3 419/4/3
f 422/5/3 420/5/3 419/5/3
f 422/5/3 421/5/3 420/5/3
f 423/5/3 421/5/3 422/5/3
f 424/5/3 421/5/3 423/5/3
f 427/1/3 426/1/3 425/1/3
f 428/1/3 426/1/3 427/1/3
f 435/1/3 430/1/3 429/1/3
f 435/1/3 431/1/3 430/1/3
f 436/1/3 431/1/3 435/1/3
f 437/1/3 431/1/3 436/1/3
f 438/4/3 434/4/3 433/4/3
f 439/4/3 434/4/3 438/4/3
f 441/1/3 431/1/3 437/1/3
f 442/1/3 441/1/3 440/1/3
f 443/1/3 431/1/3 441/1/3
f 443/1/3 441/1/3 442/1/3
f 446/4/3 445/4/3 444/4/3
f 447/4/3 445/4/3 446/4/3
f 450/1/3 431/1/3 443/1/3
f 451/1/3 449/1/3 448/1/3
f 451/1/3 450/1/3 449/1/3
f 452/1/3 450/1/3 451/1/3
f 453/6/3 432/6/3 431/6/3
f 453/1/3 450/1/3 452/1/3
f 453/1/3 431/1/3 450/1/3
f 454/6/3 432/6/3 453/6/3
f 458/1/3 456/1/3 455/1/3
f 459/6/3 457/6/3 456/6/3
f 459/1/3 456/1/3 458/1/3
f 460/6/3 457/6/3 459/6/3
f 463/7/3 462/7/3 461/7/3
f 464/7/3 462/7/3 463/7/3
f 465/7/3 462/7/3 464/7/3
f 466/7/3 462/7/3 465/7/3
f 470/7/3 468/7/3 467/7/3
f 471/7/3 470/7/3 469/7/3
f 472/7/3 468/7/3 470/7/3
f 472/7/3 470/7/3 471/7/3
f 476/1/3 474/1/3 473/1/3
f 477/6/3 475/6/3 474/6/3
f 477/1/3 474/1/3 476/1/3
f 478/6/3 475/6/3 477/6/3
f 479/2/4 480/2/4 481/2/4
f 481/2/4 480/2/4 482/2/4
f 483/3/4 484/3/4 485/3/4
f 485/3/4 484/3/4 486/3/4
f 487/6/4 488/6/4 490/6/4
f 490/6/4 488/6/4 491/6/4
f 492/3/4 493/3/4 494/3/4
f 494/3/4 493/3/4 495/3/4
f 489/6/4 490/6/4 496/6/4
f 496/6/4 490/6/4 497/6/4
f 497/6/4 498/6/4 499/6/4
f 499/6/4 498/6/4 500/6/4
f 501/4/4 502/4/4 503/4/4
f 503/4/4 502/4/4 504/4/4
f 505/6/4 506/6/4 507/6/4
f 507/6/4 506/6/4 508/6/4
f 509/4/4 510/4/4 511/4/4
f 511/4/4 510/4/4 512/4/4
f 513/4/4 514/4/4 516/4/4
f 514/4/4 515/4/4 516/4/4
f 516/4/4 515/4/4 517/4/4
f 518/4/4 519/4/4 520/4/4
f 520/4/4 519/4/4 521/4/4
f 521/4/4 519/4/4 522/4/4
f 523/5/4 524/5/4 525/5/4
f 525/5/4 524/5/4 526/5/4
f 527/1/4 528/1/4 529/1/4
f 529/1/4 528/1/4 530/1/4
f 531/5/4 532/5/4 533/5/4
f 533/5/4 532/5/4 534/5/4
f 535/1/4 536/1/4 538/1/4
f 538/1/4 536/1/4 539/1/4
f 537/4/4 538/4/4 540/4/4
f 540/4/4 538/4/4 541/4/4
f 542/4/4 543/4/4 544/4/4
f 544/4/4 543/4/4 545/4/4
f 545/1/4 546/1/4 547/1/4
f 547/1/4 546/1/4 548/1/4
f 549/4/4 550/4/4 551/4/4
f 551/4/4 550/4/4 552/4/4
f 553/4/4 554/4/4 555/4/4
f 555/4/4 554/4/4 556/4/4
f 557/5/4 558/5/4 561/5/4
f 558/1/4 559/1/4 562/1/4
f 561/5/4 558/5/4 562/5/4
f 559/6/4 560/6/4 563/6/4
f 562/1/4 559/1/4 563/1/4
f 563/6/4 560/6/4 564/6/4
f 565/7/4 566/7/4 567/7/4
f 567/7/4 566/7/4 568/7/4
f 569/7/4 570/7/4 571/7/4
f 571/7/4 570/7/4 572/7/4
f 573/5/4 574/5/4 577/5/4
f 574/1/4 575/1/4 578/1/4
f 577/5/4 574/5/4 578/5/4
f 575/6/4 576/6/4 579/6/4
f 578/1/4 575/1/4 579/1/4
f 579/6/4 576/6/4 580/6/4
f 582/1/4 583/1/4 585/1/4
f 585/1/4 583/1/4 586/1/4
f 582/1/4 585/1/4 587/1/4
f 586/1/4 583/1/4 588/1/4
f 582/1/4 587/1/4 589/1/4
f 587/1/4 588/1/4 589/1/4
f 588/1/4 583/1/4 590/1/4
f 589/1/4 588/1/4 590/1/4
f 582/1/4 589/1/4 591/1/4
f 590/1/4 583/1/4 592/1/4
f 581/5/4 582/5/4 593/5/4
f 591/1/4 592/1/4 594/1/4
f 593/5/4 582/5/4 594/5/4
f 582/1/4 591/1/4 594/1/4
f 583/6/4 584/6/4 595/6/4
f 594/1/4 592/1/4 595/1/4
f 592/1/4 583/1/4 595/1/4
f 595/6/4 584/6/4 596/6/4
f 601/4/5 598/4/5 597/4/5
f 602/4/5 598/4/5 601/4/5
f 603/4/5 600/4/5 599/4/5
f 604/4/5 600/4/5 603/4/5
f 609/4/5 606/4/5 605/4/5
f 610/4/5 606/4/5 609/4/5
f 611/4/5 608/4/5 607/4/5
f 612/4/5 608/4/5 611/4/5
f 617/4/5 614/4/5 613/4/5
f 618/4/5 614/4/5 617/4/5
f 619/4/5 616/4/5 615/4/5
f 620/4/5 616/4/5 619/4/5
f 625/1/5 622/1/5 621/1/5
f 628/1/5 624/1/5 623/1/5
f 629/4/5 626/4/5 625/4/5
f 629/1/5 625/1/5 621/1/5
f 630/4/5 626/4/5 629/4/5
f 631/4/5 628/4/5 627/4/5
f 632/1/5 624/1/5 628/1/5
f 632/4/5 628/4/5 631/4/5
f 633/1/5 629/1/5 621/1/5
f 636/1/5 624/1/5 632/1/5
f 637/4/5 634/4/5 633/4/5
f 637/1/5 633/1/5 621/1/5
f 638/4/5 634/4/5 637/4/5
f 639/4/5 636/4/5 635/4/5
f 640/1/5 624/1/5 636/1/5
f 640/4/5 636/4/5 639/4/5
f 641/1/5 637/1/5 621/1/5
f 642/1/5 637/1/5 641/1/5
f 645/1/5 624/1/5 640/1/5
f 646/1/5 624/1/5 645/1/5
f 647/4/5 643/4/5 642/4/5
f 648/4/5 643/4/5 647/4/5
f 649/4/5 645/4/5 644/4/5
f 650/4/5 645/4/5 649/4/5
f 656/7/5 652/7/5 651/7/5
f 657/7/5 652/7/5 656/7/5
f 658/7/5 654/7/5 653/7/5
f 659/7/5 654/7/5 658/7/5
f 661/2/5 657/2/5 656/2/5
f 661/2/5 660/2/5 659/2/5
f 661/2/5 659/2/5 658/2/5
f 661/2/5 658/2/5 657/2/5
f 661/2/5 656/2/5 655/2/5
f 662/2/5 660/2/5 661/2/5
f 665/5/5 664/5/5 663/5/5
f 666/5/5 664/5/5 665/5/5
f 667/5/5 664/5/5 666/5/5
f 668/5/5 664/5/5 667/5/5
f 669/5/5 665/5/5 663/5/5
f 670/5/5 667/5/5 666/5/5
f 671/5/5 667/5/5 670/5/5
f 672/5/5 664/5/5 668/5/5
f 673/5/5 671/5/5 670/5/5
f 673/5/5 672/5/5 671/5/5
f 673/5/5 664/5/5 672/5/5
f 673/5/5 670/5/5 669/5/5
f 674/5/5 664/5/5 673/5/5
f 675/5/5 669/5/5 663/5/5
f 675/5/5 673/5/5 669/5/5
f 676/5/5 673/5/5 675/5/5
f 677/5/5 673/5/5 676/5/5
f 678/5/5 673/5/5 677/5/5
f 679/5/5 664/5/5 674/5/5
f 681/5/5 664/5/5 679/5/5
f 682/5/5 675/5/5 663/5/5
f 683/5/5 677/5/5 676/5/5
f 684/5/5 677/5/5 683/5/5
f 685/5/5 681/5/5 680/5/5
f 686/5/5 682/5/5 663/5/5
f 686/5/5 685/5/5 684/5/5
f 686/5/5 684/5/5 683/5/5
f 686/5/5 683/5/5 682/5/5
f 687/5/5 685/5/5 686/5/5
f 688/5/5 681/5/5 685/5/5
f 688/5/5 685/5/5 687/5/5
f 688/5/5 664/5/5 681/5/5
f 689/5/5 664/5/5 688/5/5
f 690/5/5 688/5/5 687/5/5
f 691/5/5 688/5/5 690/5/5
f 694/1/5 693/1/5 692/1/5
f 695/1/5 693/1/5 694/1/5
f 699/6/5 697/6/5 696/6/5
f 700/6/5 697/6/5 699/6/5
f 702/6/5 699/6/5 698/6/5
f 703/6/5 699/6/5 702/6/5
f 704/6/5 701/6/5 700/6/5
f 705/6/5 701/6/5 704/6/5
f 706/1/5 703/1/5 702/1/5
f 707/1/5 703/1/5 706/1/5
f 708/1/5 705/1/5 704/1/5
f 709/1/5 705/1/5 708/1/5
f 714/1/5 711/1/5 710/1/5
f 715/1/5 711/1/5 714/1/5
f 716/1/5 713/1/5 712/1/5
f 717/1/5 713/1/5 716/1/5
f 722/1/5 719/1/5 718/1/5
f 723/1/5 719/1/5 722/1/5
f 724/1/5 721/1/5 720/1/5
f 725/1/5 721/1/5 724/1/5
f 729/6/5 727/6/5 726/6/5
f 730/6/5 727/6/5 729/6/5
f 732/6/5 729/6/5 728/6/5
f 733/6/5 729/6/5 732/6/5
f 734/6/5 731/6/5 730/6/5
f 735/6/5 731/6/5 734/6/5
f 736/6/5 734/6/5 733/6/5
f 737/6/5 734/6/5 736/6/5
f 740/3/5 739/3/5 738/3/5
f 741/3/5 739/3/5 740/3/5
f 742/1/6 743/1/6 746/1/6
f 744/1/6 745/1/6 747/1/6
f 742/1/6 746/1/6 748/1/6
f 747/1/6 745/1/6 749/1/6
f 749/1/6 745/1/6 750/1/6
f 742/1/6 748/1/6 753/1/6
f 753/1/6 748/1/6 754/1/6
f 751/1/6 752/1/6 755/1/6
f 755/1/6 752/1/6 756/1/6
f 757/7/6 758/7/6 762/7/6
f 762/7/6 758/7/6 763/7/6
f 759/7/6 760/7/6 764/7/6
f 764/7/6 760/7/6 765/7/6
f 762/2/6 763/2/6 767/2/6
f 765/2/6 766/2/6 767/2/6
f 764/2/6 765/2/6 767/2/6
f 763/2/6 764/2/6 767/2/6
f 761/2/6 762/2/6 767/2/6
f 767/2/6 766/2/6 768/2/6
f 768/2/6 766/2/6 769/2/6
f 769/2/6 766/2/6 770/2/6
f 767/5/6 768/5/6 771/5/6
f 769/5/6 770/5/6 772/5/6
f 767/5/6 771/5/6 773/5/6
f 773/5/6 771/5/6 774/5/6
f 772/5/6 770/5/6 775/5/6
f 775/5/6 770/5/6 776/5/6
f 777/1/6 778/1/6 781/1/6
f 781/1/6 778/1/6 782/1/6
f 779/1/6 780/1/6 783/1/6
f 783/1/6 780/1/6 784/1/6
f 782/1/6 778/1/6 785/1/6
f 785/1/6 778/1/6 786/1/6
f 779/1/6 783/1/6 787/1/6
f 787/1/6 783/1/6 788/1/6
f 789/6/6 790/6/6 792/6/6
f 792/6/6 790/6/6 793/6/6
f 791/6/6 792/6/6 795/6/6
f 795/6/6 792/6/6 796/6/6
f 793/6/6 794/6/6 797/6/6
f 797/6/6 794/6/6 798/6/6
f 795/1/6 796/1/6 799/1/6
f 797/1/6 798/1/6 800/1/6
f 799/1/6 796/1/6 801/1/6
f 801/1/6 796/1/6 802/1/6
f 797/1/6 800/1/6 803/1/6
f 803/1/6 800/1/6 804/1/6
f 805/1/6 806/1/6 809/1/6
f 809/1/6 806/1/6 810/1/6
f 807/1/6 808/1/6 811/1/6
f 811/1/6 808/1/6 812/1/6
f 813/6/6 814/6/6 815/6/6
f 815/6/6 814/6/6 816/6/6
f 813/6/6 815/6/6 817/6/6
f 817/6/6 815/6/6 818/6/6
f 816/6/6 814/6/6 819/6/6
f 819/6/6 814/6/6 820/6/6
f 817/1/6 818/1/6 821/1/6
f 818/1/6 819/1/6 821/1/6
f 819/1/6 820/1/6 821/1/6
f 821/1/6 820/1/6 822/1/6
f 817/1/6 821/1/6 825/1/6
f 822/1/6 820/1/6 826/1/6
f 823/1/6 824/1/6 829/1/6
f 825/1/6 826/1/6 830/1/6
f 817/1/6 825/1/6 830/1/6
f 826/1/6 820/1/6 831/1/6
f 830/1/6 826/1/6 831/1/6
f 827/1/6 828/1/6 832/1/6
f 823/1/6 829/1/6 833/1/6
f 833/1/6 829/1/6 834/1/6
f 817/1/6 830/1/6 835/1/6
f 835/1/6 830/1/6 836/1/6
f 831/1/6 820/1/6 837/1/6
f 837/1/6 820/1/6 838/1/6
f 832/1/6 828/1/6 839/1/6
f 839/1/6 828/1/6 840/1/6
f 841/1/6 842/1/6 843/1/6
f 843/1/6 842/1/6 844/1/6
f 845/6/6 846/6/6 848/6/6
f 848/6/6 846/6/6 849/6/6
f 847/6/6 848/6/6 851/6/6
f 849/6/6 850/6/6 851/6/6
f 848/6/6 849/6/6 851/6/6
f 851/6/6 850/6/6 852/6/6
f 852/6/6 850/6/6 853/6/6
f 853/6/6 850/6/6 854/6/6
f 852/6/6 853/6/6 855/6/6
f 855/6/6 853/6/6 856/6/6
f 857/6/6 858/6/6 860/6/6
f 860/6/6 858/6/6 861/6/6
f 861/6/6 858/6/6 862/6/6
f 860/7/6 861/7/6 864/7/6
f 862/6/6 863/6/6 865/6/6
f 859/6/6 860/6/6 866/6/6
f 864/7/6 865/7/6 867/7/6
f 866/6/6 860/6/6 867/6/6
f 860/7/6 864/7/6 867/7/6
f 865/6/6 863/6/6 868/6/6
f 867/7/6 865/7/6 868/7/6
f 868/6/6 863/6/6 869/6/6
f 867/6/6 868/6/6 870/6/6
f 870/6/6 868/6/6 871/6/6
f 872/3/6 873/3/6 874/3/6
f 874/3/6 873/3/6 875/3/6
f 876/3/6 877/3/6 878/3/6
f 878/3/6 877/3/6 879/3/6
